<svg height="480pt" viewBox="0 0 480 480.912" width="480pt" xmlns="http://www.w3.org/2000/svg"><path d="m96.902344 96.457031v57.359375l33.121094-57.359375zm0 0" fill="#9bc9ff"/><path d="m96.902344 432.457031h140.5625l-140.5625-81.121093zm0 0" fill="#9bc9ff"/><path d="m432.902344 96.457031h-105.359375l105.359375 60.800781zm0 0" fill="#9bc9ff"/><path d="m432.902344 432.457031v-188.5625l-108.796875 188.5625zm0 0" fill="#9bc9ff"/><g fill="#1e81ce"><path d="m280.902344 128.457031h8v-16h-8c-4.417969 0-8-3.582031-8-8v-16h-16v16c0 13.253907 10.746094 24 24 24zm0 0"/><path d="m182.546875 183.667969 8-13.855469 124.707031 71.996094-8 13.859375zm0 0"/><path d="m158.546875 227.382812 8-13.859374 124.710937 72-8 13.855468zm0 0"/><path d="m440.902344 246.054688 40.449218-70.070313-40.449218-23.320313v-64.207031h-111.199219l-16.800781-9.6875v-38.3125c-.144532-20.535156-15.816406-37.625-36.261719-39.542969-20.445313-1.917968-39.023437 11.960938-42.984375 32.109376l-57.199219-33.023438-51.058593 88.457031h-36.496094v63.199219l-88.445313 153.253906 88.445313 51.058594v84.488281h146.402344l70.078124 40.453125 23.320313-40.453125h112.199219zm-16-141.597657v38.941407l-67.488282-38.941407zm-176-64c0-13.257812 10.746094-24 24-24 13.257812 0 24 10.742188 24 24v29.078125l-48-27.710937zm-144 64h11.257812l-11.257812 19.503907zm0 320v-59.257812l102.648437 59.257812zm194.59375 34.589844-277.183594-160 160-277.183594 114.589844 66.144531v32.449219c0 13.253907-10.742188 24-24 24-13.253906 0-24-10.746093-24-24v-48h-16v48c0 22.089844 17.910156 40 40 40 22.09375 0 40-17.910156 40-40v-23.199219l146.59375 84.597657zm38.457031-34.589844 42.949219-74.402343 44-76.253907v150.65625zm0 0"/><path d="m134.546875 271.09375 8-13.855469 124.710937 71.996094-8 13.855469zm0 0"/></g></svg>